<svg xmlns="http://www.w3.org/2000/svg" width="283.115" height="248.465" viewBox="0 0 283.115 248.465">
  <g id="Group_27" data-name="Group 27" transform="translate(-192.77 -64.607)">
    <g id="Group_21" data-name="Group 21" transform="translate(192.77 64.607)">
      <path id="Path_1" data-name="Path 1" d="M823.273,459.542c.056-1.738,12.225-3.192,32.328-4.191,2.977-.148,3.233-1.862.324-2.186-4.344-.484-6.718-.984-6.7-1.479.069-2.162,45.739-3.406,102.007-2.777s101.827,2.89,101.759,5.052c-.018.553-3.008,1.045-8.388,1.461-1.77.137-1.677,1.175.116,1.275,28.619,1.6,46.716,3.712,46.648,5.839-.067,2.105-17.927,3.794-46.133,4.762-2.087.072-3.4.822-3.351,1.673v.014c-.069,2.162-45.739,3.406-102.008,2.777s-101.826-2.891-101.758-5.053c.01-.323,1.037-.625,2.963-.9,3.1-.449,2.756-2.282-.462-2.615C829.541,462.049,823.232,460.8,823.273,459.542Z" transform="translate(-823.273 -223.462)" fill="#9fcbff" opacity="0.7"/>
      <path id="Path_2" data-name="Path 2" d="M927.6,463.837l50.619,2.147L960.916,457.4H932.553Z" transform="translate(-789.565 -225.526)" fill="#9fcbff" opacity="0.7"/>
      <g id="Group_20" data-name="Group 20" transform="translate(4.637 0)">
        <g id="Group_8" data-name="Group 8" transform="translate(152.061 55.196)">
          <g id="Group_3" data-name="Group 3" transform="translate(0 65.122)">
            <g id="Group_2" data-name="Group 2">
              <path id="Path_3" data-name="Path 3" d="M987.968,388.489s-5.263-3.923-20.511-13.728c-33.034-21.243-45.087-59.076-21.249-63.48,23.505-4.343,30.808,27.857,41.447,53.477,4.695,11.306,9.709,16.194,9.709,16.194Z" transform="translate(-933.722 -310.884)" fill="#29cf87" stroke="rgba(0,0,0,0)" stroke-width="1"/>
              <path id="Path_4" data-name="Path 4" d="M947.415,312.615c5.319,12.608,13.9,31.208,22.131,41.55,7.682,9.65,19.947,21.619,28.9,29.977l-5.934,4.759s-5.263-3.923-20.511-13.728C940.635,355,928.189,319.882,947.415,312.615Z" transform="translate(-938.265 -311.297)" fill="#29cf87" stroke="rgba(0,0,0,0)" stroke-width="1" opacity="0.54"/>
            </g>
            <path id="Path_5" data-name="Path 5" d="M938.268,312.615c5.319,12.608,13.9,31.208,22.131,41.55,7.682,9.65,19.947,21.619,28.9,29.977" transform="translate(-929.118 -311.297)" fill="none" stroke="#10665a" stroke-miterlimit="10" stroke-width="1.605"/>
            <path id="Path_6" data-name="Path 6" d="M987.494,336.97c10.48,12.07,18.712,9.788,18.712,9.788" transform="translate(-983.506 -317.109)" fill="none" stroke="#10665a" stroke-miterlimit="10" stroke-width="1.605"/>
            <path id="Path_7" data-name="Path 7" d="M994.086,326.941c7.178,8.267,12.816,6.7,12.816,6.7" transform="translate(-989.221 -314.715)" fill="none" stroke="#10665a" stroke-miterlimit="10" stroke-width="1.1"/>
            <path id="Path_8" data-name="Path 8" d="M957.4,384.293c9.331,5.727,14.239,2.542,14.239,2.542" transform="translate(-926.032 -328.401)" fill="none" stroke="#10665a" stroke-miterlimit="10" stroke-width="1.1"/>
            <path id="Path_9" data-name="Path 9" d="M976.784,353.511c10.48,12.07,20.939,8.876,20.939,8.876" transform="translate(-966.868 -321.056)" fill="none" stroke="#10665a" stroke-miterlimit="10" stroke-width="1.605"/>
            <path id="Path_10" data-name="Path 10" d="M967.852,370.181A18.641,18.641,0,0,0,988.42,375.3" transform="translate(-950.764 -325.033)" fill="none" stroke="#10665a" stroke-miterlimit="10" stroke-width="1.605"/>
            <path id="Path_11" data-name="Path 11" d="M960.9,376.01c2.757-7.83.757-17.817.757-17.817" transform="translate(-919.415 -322.173)" fill="none" stroke="#10665a" stroke-miterlimit="10" stroke-width="1.605"/>
            <path id="Path_12" data-name="Path 12" d="M970.253,361.179c5.881-10.518,2.115-25.533,2.115-25.533" transform="translate(-937.729 -316.793)" fill="none" stroke="#10665a" stroke-miterlimit="10" stroke-width="1.605"/>
            <path id="Path_13" data-name="Path 13" d="M982.115,346.311c5.526-7.294,1.28-23.151,1.28-23.151" transform="translate(-958.157 -313.814)" fill="none" stroke="#10665a" stroke-miterlimit="10" stroke-width="1.605"/>
            <path id="Path_14" data-name="Path 14" d="M993.714,334.947a19.865,19.865,0,0,0-1.849-15.152" transform="translate(-975.034 -313.01)" fill="none" stroke="#10665a" stroke-miterlimit="10" stroke-width="1.416"/>
            <path id="Path_15" data-name="Path 15" d="M952.644,389.654c1.664-7.031-1.539-14.06-1.539-14.06" transform="translate(-902.717 -326.325)" fill="none" stroke="#10665a" stroke-miterlimit="10" stroke-width="1.071"/>
          </g>
          <g id="Group_5" data-name="Group 5" transform="translate(33.687)">
            <g id="Group_4" data-name="Group 4">
              <path id="Path_16" data-name="Path 16" d="M929.024,369.957s-3.141-9.874-13.412-36.3c-22.253-57.257-7.768-120.149,23.117-106.384,30.454,13.574,14.708,64.631,7.764,109.292-3.064,19.707-.937,30.721-.937,30.721Z" transform="translate(-904.852 -225.353)" fill="#29cf87" stroke="rgba(0,0,0,0)" stroke-width="1"/>
              <path id="Path_17" data-name="Path 17" d="M956.929,225.773c-3.321,22.047-7.373,55.185-5.62,76.5,1.635,19.892,6.829,46.849,10.906,66l-10.442,1.689s-3.141-9.875-13.412-36.3C917.234,279.294,929.227,219.858,956.929,225.773Z" transform="translate(-927.602 -225.355)" fill="#29cf87" stroke="rgba(0,0,0,0)" stroke-width="1" opacity="0.54"/>
            </g>
            <path id="Path_18" data-name="Path 18" d="M933.646,225.9c-3.321,22.047-7.373,55.185-5.62,76.5,1.635,19.892,6.829,46.849,10.906,66" transform="translate(-904.319 -225.484)" fill="none" stroke="#10665a" stroke-miterlimit="10" stroke-width="2.404"/>
            <path id="Path_19" data-name="Path 19" d="M941.919,254.243c3.055,25.608,14.292,29.3,14.292,29.3" transform="translate(-932.497 -232.246)" fill="none" stroke="#10665a" stroke-miterlimit="10" stroke-width="2.404"/>
            <path id="Path_20" data-name="Path 20" d="M938.966,241.2c2.092,17.538,9.788,20.067,9.788,20.067" transform="translate(-922.792 -229.135)" fill="none" stroke="#10665a" stroke-miterlimit="10" stroke-width="1.647"/>
            <path id="Path_21" data-name="Path 21" d="M935.517,350.361c6.492,15.792,14.562,15.444,14.562,15.444" transform="translate(-921.491 -255.182)" fill="none" stroke="#10665a" stroke-miterlimit="10" stroke-width="1.647"/>
            <path id="Path_22" data-name="Path 22" d="M941.058,283.84c3.055,25.608,17.554,29.887,17.554,29.887" transform="translate(-934.243 -239.309)" fill="none" stroke="#10665a" stroke-miterlimit="10" stroke-width="2.404"/>
            <path id="Path_23" data-name="Path 23" d="M939.547,314.986c3.131,21.695,19.944,24.334,19.944,24.334" transform="translate(-933.972 -246.741)" fill="none" stroke="#10665a" stroke-miterlimit="10" stroke-width="2.404"/>
            <path id="Path_24" data-name="Path 24" d="M918.511,350.1c9.073-8.629,14.263-24.244,14.263-24.244" transform="translate(-891.238 -249.334)" fill="none" stroke="#10665a" stroke-miterlimit="10" stroke-width="2.404"/>
            <path id="Path_25" data-name="Path 25" d="M913.125,319.908c14.707-9.772,21.632-33.882,21.632-33.882" transform="translate(-889.121 -239.83)" fill="none" stroke="#10665a" stroke-miterlimit="10" stroke-width="2.404"/>
            <path id="Path_26" data-name="Path 26" d="M918.028,289.532c11.875-5.567,18.877-31.254,18.877-31.254" transform="translate(-895.001 -233.209)" fill="none" stroke="#10665a" stroke-miterlimit="10" stroke-width="2.404"/>
            <path id="Path_27" data-name="Path 27" d="M928.273,267.054a36.769,36.769,0,0,0,9.246-22.7" transform="translate(-903.416 -229.887)" fill="none" stroke="#10665a" stroke-miterlimit="10" stroke-width="2.12"/>
            <path id="Path_28" data-name="Path 28" d="M922.253,377.8c7.209-8.426,8.785-20.914,8.785-20.914" transform="translate(-892.351 -256.739)" fill="none" stroke="#10665a" stroke-miterlimit="10" stroke-width="1.604"/>
          </g>
          <g id="Group_7" data-name="Group 7" transform="translate(71.578 43.482)">
            <g id="Group_6" data-name="Group 6">
              <path id="Path_29" data-name="Path 29" d="M851.849,382.983s.678-8.029,1.179-30.253c1.085-48.151,29.705-85.649,47.435-63.975,17.484,21.372-8.56,50.236-26.529,78.185-7.929,12.332-9.655,20.744-9.655,20.744Z" transform="translate(-851.849 -282.462)" fill="#29cf87" stroke="rgba(0,0,0,0)" stroke-width="1"/>
              <path id="Path_30" data-name="Path 30" d="M908.929,285.925c-8.8,13.84-21.352,35.012-26.358,50.356-4.671,14.319-8.905,34.9-11.638,49.672l-7.851-2.969s.678-8.029,1.179-30.253C865.29,307.013,891.142,270.906,908.929,285.925Z" transform="translate(-863.081 -282.465)" fill="#29cf87" stroke="rgba(0,0,0,0)" stroke-width="1" opacity="0.54"/>
            </g>
            <path id="Path_31" data-name="Path 31" d="M901.078,287.008c-8.8,13.84-21.352,35.012-26.358,50.356-4.671,14.319-8.905,34.9-11.638,49.672" transform="translate(-855.229 -283.547)" fill="none" stroke="#10665a" stroke-miterlimit="10" stroke-width="1.862"/>
            <path id="Path_32" data-name="Path 32" d="M889.883,296.149c-5.345,18.808,1.491,25.789,1.491,25.789" transform="translate(-864.378 -285.728)" fill="none" stroke="#10665a" stroke-miterlimit="10" stroke-width="1.862"/>
            <path id="Path_33" data-name="Path 33" d="M879.791,290.693c-3.661,12.881,1.021,17.663,1.021,17.663" transform="translate(-846.621 -284.426)" fill="none" stroke="#10665a" stroke-miterlimit="10" stroke-width="1.276"/>
            <path id="Path_34" data-name="Path 34" d="M906.144,364.6c-.049,13.42,5.739,16.373,5.739,16.373" transform="translate(-898.822 -302.062)" fill="none" stroke="#10665a" stroke-miterlimit="10" stroke-width="1.276"/>
            <path id="Path_35" data-name="Path 35" d="M897.827,315.137c-5.346,18.808,3.617,27.482,3.617,27.482" transform="translate(-880.756 -290.259)" fill="none" stroke="#10665a" stroke-miterlimit="10" stroke-width="1.862"/>
            <path id="Path_36" data-name="Path 36" d="M902.974,335.9c-4.146,16.149,6.928,24.612,6.928,24.612" transform="translate(-893.72 -295.213)" fill="none" stroke="#10665a" stroke-miterlimit="10" stroke-width="1.862"/>
            <path id="Path_37" data-name="Path 37" d="M881.047,373.066c8.919-2.343,17.148-11.022,17.148-11.022" transform="translate(-866.025 -301.452)" fill="none" stroke="#10665a" stroke-miterlimit="10" stroke-width="1.862"/>
            <path id="Path_38" data-name="Path 38" d="M865.592,351.535c13.223-.9,25.161-14.733,25.161-14.733" transform="translate(-846.817 -295.429)" fill="none" stroke="#10665a" stroke-miterlimit="10" stroke-width="1.862"/>
            <path id="Path_39" data-name="Path 39" d="M860.922,329.808c10,.869,22.451-14.016,22.451-14.016" transform="translate(-835.881 -290.415)" fill="none" stroke="#10665a" stroke-miterlimit="10" stroke-width="1.862"/>
            <path id="Path_40" data-name="Path 40" d="M864.063,314.116a23.672,23.672,0,0,0,13.161-11.946" transform="translate(-832.124 -287.165)" fill="none" stroke="#10665a" stroke-miterlimit="10" stroke-width="1.642"/>
            <path id="Path_41" data-name="Path 41" d="M892.771,392.8c7.546-2.941,12.312-10.9,12.312-10.9" transform="translate(-881.841 -306.189)" fill="none" stroke="#10665a" stroke-miterlimit="10" stroke-width="1.243"/>
          </g>
          <path id="Path_42" data-name="Path 42" d="M945.589,407.757,940.926,440.6a11.385,11.385,0,0,1-10.149,9.73l-9.573.949a29.238,29.238,0,0,1-6.383-.068l-9.159-1.1a11.385,11.385,0,0,1-9.964-10.145l-3.537-34.595Z" transform="translate(-850.304 -268.308)" fill="#ff6000"/>
          <path id="Path_43" data-name="Path 43" d="M903.186,405.584l11.6,31.408a12.2,12.2,0,0,0,13.053,7.867l9.8-1.3a31.331,31.331,0,0,0,6.644-1.635l2.781-1.018a11.379,11.379,0,0,1-10.094,9.427l-9.573.949a29.237,29.237,0,0,1-6.383-.068l-9.159-1.1a11.385,11.385,0,0,1-9.964-10.145l-3.536-34.595Z" transform="translate(-856.501 -268.308)" fill="#ff6000" opacity="0.22"/>
          <path id="Path_44" data-name="Path 44" d="M893.109,415.918l-.947-10.549,9.979.446a112.908,112.908,0,0,0,21.189.947l22.258,1-.969,5.542C921.411,417.774,902.868,417.984,893.109,415.918Z" transform="translate(-850.304 -268.308)" fill="#ff6000" opacity="0.51"/>
          <path id="Path_45" data-name="Path 45" d="M945.993,399.85c-8.881,2.595-29.6,6.833-55.84.32a3.455,3.455,0,0,0-4.275,3.323l-.037,3.278a3.463,3.463,0,0,0,2.546,3.376c7.352,2.03,29.832,6.887,59.338.574a3.635,3.635,0,0,0,2.875-3.512l.043-3.839A3.626,3.626,0,0,0,945.993,399.85Z" transform="translate(-850.545 -266.956)" fill="#ff6000"/>
          <path id="Path_46" data-name="Path 46" d="M886.59,403.609a3.461,3.461,0,0,1,3.5-3.424,3.447,3.447,0,0,0-.387,1.554l-.037,3.278a3.462,3.462,0,0,0,2.545,3.376c7.291,2.012,29.461,6.8,58.6.724a3.634,3.634,0,0,1-2.375,1.72c-29.507,6.313-51.986,1.456-59.339-.574a3.463,3.463,0,0,1-2.545-3.376Z" transform="translate(-851.258 -267.071)" fill="#ff6000" opacity="0.22"/>
        </g>
        <g id="Group_11" data-name="Group 11" transform="translate(0 87.002)">
          <path id="Path_47" data-name="Path 47" d="M1068.85,292.178h-5.611s-3.753,14.983-10.308,20.133,7.96,8.584,7.96,8.584l6.554.937s3.278-10.925,5.775-13.891S1068.85,292.178,1068.85,292.178Z" transform="translate(-983.875 -273.104)" fill="#f9bbc1"/>
          <path id="Path_48" data-name="Path 48" d="M1068.85,292.178h-5.611s-3.753,14.983-10.308,20.133,7.96,8.584,7.96,8.584l6.554.937s3.278-10.925,5.775-13.891S1068.85,292.178,1068.85,292.178Z" transform="translate(-983.875 -273.104)" fill="#f9bbc1" opacity="0.38"/>
          <ellipse id="Ellipse_1" data-name="Ellipse 1" cx="18.798" cy="14.716" rx="18.798" ry="14.716" transform="matrix(-0.119, -0.993, 0.993, -0.119, 81.593, 43.501)" fill="#fcbda9" stroke="rgba(0,0,0,0)" stroke-width="1"/>
          <path id="Path_49" data-name="Path 49" d="M1052.317,272.9a22.206,22.206,0,0,1,6.89.487c-6.306,2.123-10.956,9.456-10.956,18.177,0,9.089,3.178,16.672,9.889,18.419a11.638,11.638,0,0,1-1.345.245c-8.069.968-15.613-6.6-16.849-16.912S1044.248,273.872,1052.317,272.9Z" transform="translate(-960.591 -268.485)" fill="#f9bbc1" opacity="0.38"/>
          <g id="Group_10" data-name="Group 10" transform="translate(54.893 54.683)">
            <path id="Path_50" data-name="Path 50" d="M959.992,389.568l60.992,5.939,27.168-52.174-60.7-4.089Z" transform="translate(-943.686 -339.018)" fill="#2e78ec"/>
            <path id="Path_51" data-name="Path 51" d="M963.36,389.271l60.992,5.939,27.168-52.174-60.7-4.089Z" transform="translate(-949.618 -338.947)" fill="#9ac6fc"/>
            <path id="Path_52" data-name="Path 52" d="M1049.454,345.322l-56.645-3.816-25.53,46.786,56.914,5.541Z" transform="translate(-950.536 -339.558)" fill="#eaf7ff" opacity="0.71"/>
            <rect id="Rectangle_3" data-name="Rectangle 3" width="76.745" height="6.765" transform="translate(0 53.137)" fill="#2440e4"/>
            <g id="Group_9" data-name="Group 9" transform="translate(24.655 6.935)">
              <path id="Path_53" data-name="Path 53" d="M976.711,351.233l39.322,2.925,1.873-3.178-39.322-2.925Z" transform="translate(-950.823 -348.055)" fill="#9ac6fc"/>
              <path id="Path_54" data-name="Path 54" d="M981.215,358.689l48.062,3.424,1.873-3.178-48.062-3.424Z" transform="translate(-967.497 -349.835)" fill="#9ac6fc"/>
              <path id="Path_55" data-name="Path 55" d="M985.719,367.621l33.079,2.8,1.873-3.178-33.079-2.8Z" transform="translate(-960.448 -351.966)" fill="#9ac6fc"/>
              <path id="Path_56" data-name="Path 56" d="M990.224,374.913l48.062,3.424,1.873-3.178L992.1,371.735Z" transform="translate(-983.365 -353.706)" fill="#9ac6fc"/>
              <path id="Path_57" data-name="Path 57" d="M994.728,383.025l48.062,3.424,1.873-3.178L996.6,379.847Z" transform="translate(-991.299 -355.641)" fill="#9ac6fc"/>
              <path id="Path_58" data-name="Path 58" d="M999.232,391.137l48.062,3.424,1.873-3.178-48.062-3.424Z" transform="translate(-999.232 -357.577)" fill="#9ac6fc"/>
            </g>
          </g>
          <path id="Path_59" data-name="Path 59" d="M1021.009,337.07a16.732,16.732,0,0,1,1-6.535c1-2.648,2.893-5.511,6.44-5.56,4.058-.057,7.839.88,8.547,3.232,1.753,5.82,2.67,7.438,7.06,17.369a126.214,126.214,0,0,0,20.289,31.214l-17.168,6.243S1022.3,371.043,1021.009,337.07Z" transform="translate(-951.436 -280.929)" fill="#ff285a"/>
          <path id="Path_60" data-name="Path 60" d="M890.071,434.9s11.212,11.485,19.333,14.023,28.075,8.467,20.969,11.827-19.7.822-33.019-.557c-8.532-.883-4.37-6.5-9.989-13.993C886.528,445.085,890.071,434.9,890.071,434.9Z" transform="translate(-717.123 -307.16)" fill="#f9bbc1"/>
          <rect id="Rectangle_4" data-name="Rectangle 4" width="75.331" height="37.526" transform="translate(75.143 114.585)" fill="#8b85e9"/>
          <path id="Path_61" data-name="Path 61" d="M1079.215,373.858a6.279,6.279,0,0,1,5.923,1.405c4.951,4.513,14.4,14.434,7.188,18.755-28.282,16.951-36.3,26.264-53.448,26.261-28.211,0-40.595-9.321-42.478-23.283Z" transform="translate(-963.306 -292.539)" fill="#ffcb00"/>
          <path id="Path_62" data-name="Path 62" d="M931.158,397.715s7.258-2.216,10.925,7.179c4.994,12.8,11.328,14.533,27.156,21.85,16.485,7.621,21.538,10.613,21.538,10.613l11.861-8.116S950.086,371.3,937.4,373.477C918.748,376.684,931.158,397.715,931.158,397.715Z" transform="translate(-818.246 -292.489)" fill="#ffcb00"/>
          <path id="Path_63" data-name="Path 63" d="M955.682,399.433c4.57,6.388,13.218,11.4,28.728,13.849,14,2.213,26.688-4.16,47.128-13.124,3.289-1.443,4.671.4,5.468,3.9.007.027-1.723,11.769,25.933,25.9,13.167,6.728,17.572,12.23,19.112,13.436l-.251.171s-5.053-2.991-21.538-10.613c-15.828-7.318-22.162-9.052-27.156-21.85a12.987,12.987,0,0,0-3.685-5.462c-21.339,13.475-29.38,20.8-44.58,20.8-28.211,0-40.595-9.321-42.478-23.283Z" transform="translate(-909.268 -298.697)" fill="#da1c5c" opacity="0.11"/>
          <path id="Path_64" data-name="Path 64" d="M1100.844,311.486a23.82,23.82,0,0,0,12.654,10.495s1.08,8.077-1.729,19.939-4.635,27.156-4.635,27.156-6.914,17.793-31.261,16.232-18.729-11.549-18.729-11.549,9.548-30.824,19.041-43.388C1086.8,316.324,1096.475,308.833,1100.844,311.486Z" transform="translate(-1027.887 -277.585)" fill="#ff285a"/>
          <path id="Path_65" data-name="Path 65" d="M1015.83,282.894a6.552,6.552,0,0,1,3.792-.011c4.2,1.327,14.172,3.94,22.087,1.77,10.3-2.824,11.393-6.645,11.393-6.645s-4.214,1.948-7.18,1.948c0,0,6.087-3.278,7.18-6.868a19.844,19.844,0,0,1-10.613,2.4s4.526-.216,5.462-2.4a29.531,29.531,0,0,1-13.266-.937s8.116-.156,9.209-1.717c0,0-8.9.312-14.359-1.872s-17.385-2.81-21.335,4.994C1004.622,280.63,1010.072,284.546,1015.83,282.894Z" transform="translate(-929.577 -267.126)" fill="#03004d"/>
          <path id="Path_66" data-name="Path 66" d="M1069.81,417.157c-28.152-1.553-40.007-11.525-41.133-25.557-6.36-3.824-3.378-8.507-3.378-8.507a176.576,176.576,0,0,1,10.2-23.676c10.869,2.2,15.279,12.173,17.867,20.494,2.806,9.025,1.118,20.439,33.737,17.056,7.88-.817,15.139,1.139,18.949,7.222C1090.616,413.082,1082.619,417.865,1069.81,417.157Z" transform="translate(-995.883 -289.149)" fill="#da1c5c" opacity="0.22"/>
          <path id="Path_67" data-name="Path 67" d="M1063.854,277.621l6.213,4.654s-11,0-11.519,7.206c-.338,4.711-2.81,10.769-11.55,11.081,0,0,2.887-2.81,3.2-3.824,0,0-2.731,1.795-5.385,1.092,0,0,4.76-2.731,5.774-5.384a6.317,6.317,0,0,1-3.9,1.872s4.682-3.9,4.916-5.541a3.6,3.6,0,0,1-3.434.313,5.181,5.181,0,0,0,2.81-2.385c1.093-1.908.845-6.694,2.413-10.544s6.483-3.07,6.483-3.07Z" transform="translate(-975.289 -268.535)" fill="#03004d"/>
          <path id="Path_68" data-name="Path 68" d="M1058.538,385.1s-5.65-28.723-27.781-21.538c-26.479,8.6-45.18,66.846-6.868,75.539,19.665,4.462,72.731,3.668,88.323,3a19.5,19.5,0,0,0,10.338-3.461c3.294-2.3,6.686-5.849,6.844-10.773.312-9.676-6.243-23.1-35.272-22.474S1058.538,385.1,1058.538,385.1Z" transform="translate(-1002.124 -289.862)" fill="#c19dfb" stroke="rgba(0,0,0,0)" stroke-width="1"/>
          <path id="Path_69" data-name="Path 69" d="M1037.513,378.7a11,11,0,0,1,6.375-4.017l.04-.008c22.8-4.667,25.2,24.507,25.2,24.507s4.178,21.515,33.1,24.137c24.477,2.22,31.826,12.64,32.663,21.6-15.956.668-68.477,1.425-88.02-3.01C1017.233,435.182,1021.711,398.808,1037.513,378.7Z" transform="translate(-1025.102 -292.668)" fill="#c1c6fb" stroke="rgba(0,0,0,0)" stroke-width="1"/>
          <path id="Path_70" data-name="Path 70" d="M1064.7,346.625a11.52,11.52,0,0,1,.256-1.436,56.028,56.028,0,0,0,10.135,28.371,35.752,35.752,0,0,1-1.139,4.743,40.494,40.494,0,0,1-3.3,4.836S1062.533,364.755,1064.7,346.625Z" transform="translate(-995.177 -285.753)" fill="#da1c5c" opacity="0.57"/>
          <path id="Path_71" data-name="Path 71" d="M1056.99,291.061a6.317,6.317,0,0,1-3.9,1.872s4.682-3.9,4.916-5.541a3.6,3.6,0,0,1-3.434.313,5.18,5.18,0,0,0,2.809-2.385c1.054-1.842.865-6.364,2.26-10.139a12.307,12.307,0,0,1,.674-1.6c2.162-4.27,6.709-6.013,11.28-6.361-.07.208-.373.437-1,.691-4.946,1.989-7.069,12.089-5.033,17.883a6.164,6.164,0,0,0-.608,2.3c-.338,4.711-2.809,10.769-11.549,11.081,0,0,2.887-2.809,3.2-3.824,0,0-2.731,1.795-5.384,1.092C1051.216,296.445,1055.976,293.714,1056.99,291.061Z" transform="translate(-981.692 -267.148)" fill="#03004d" opacity="0.39"/>
          <path id="Path_72" data-name="Path 72" d="M1060.07,288.969s-.728-4.488-2.913-3.656-3.048,3.538-2.252,6.555,4.333,1.353,4.333,1.353" transform="translate(-972.754 -271.441)" fill="#f9bbc1"/>
          <path id="Path_73" data-name="Path 73" d="M1060.07,288.969s-.728-4.488-2.913-3.656-3.048,3.538-2.252,6.555,4.333,1.353,4.333,1.353" transform="translate(-972.754 -271.441)" fill="#f9bbc1" opacity="0.38"/>
          <path id="Path_74" data-name="Path 74" d="M902.58,451.119c17.357,4.779,30.994,10.466,24.572,13.5-7.107,3.36-19.7.822-33.019-.557-6.094-.63-5.713-3.678-7.045-8.1C889.8,456.225,896.006,455.9,902.58,451.119Z" transform="translate(-713.902 -311.03)" fill="#03004d"/>
        </g>
        <g id="Group_13" data-name="Group 13" transform="translate(91.27 34.07)">
          <g id="Group_12" data-name="Group 12" transform="translate(0 0)">
            <ellipse id="Ellipse_2" data-name="Ellipse 2" cx="20.978" cy="20.978" rx="20.978" ry="20.978" transform="translate(6.779 48.184) rotate(-99.298)" fill="#ff7300"/>
            <circle id="Ellipse_3" data-name="Ellipse 3" cx="20.978" cy="20.978" r="20.978" transform="translate(4.113 2.489)" fill="#ffb300"/>
            <circle id="Ellipse_4" data-name="Ellipse 4" cx="17.731" cy="17.731" r="17.731" transform="translate(7.36 5.737)" fill="#ffb300" opacity="0.42"/>
            <g id="Ellipse_5" data-name="Ellipse 5" transform="translate(7.36 5.737)" fill="none" stroke="#ffb300" stroke-miterlimit="10" stroke-width="1.64">
              <circle cx="17.731" cy="17.731" r="17.731" stroke="none"/>
              <circle cx="17.731" cy="17.731" r="16.911" fill="none"/>
            </g>
          </g>
        </g>
        <g id="Group_15" data-name="Group 15" transform="translate(156.628 20.889)">
          <g id="Group_14" data-name="Group 14" transform="translate(0 0)">
            <circle id="Ellipse_6" data-name="Ellipse 6" cx="13.897" cy="13.897" r="13.897" transform="translate(0.813 1.888)" fill="#ff7300"/>
            <circle id="Ellipse_7" data-name="Ellipse 7" cx="13.897" cy="13.897" r="13.897" transform="translate(1.474 1.474)" fill="#ffb300"/>
            <ellipse id="Ellipse_8" data-name="Ellipse 8" cx="11.746" cy="11.746" rx="11.746" ry="11.746" transform="matrix(-0.922, -0.386, 0.386, -0.922, 21.668, 30.744)" fill="#ffb300" opacity="0.42"/>
            <g id="Ellipse_9" data-name="Ellipse 9" transform="matrix(-0.922, -0.386, 0.386, -0.922, 21.668, 30.744)" fill="none" stroke="#ffb300" stroke-miterlimit="10" stroke-width="1.086">
              <ellipse cx="11.746" cy="11.746" rx="11.746" ry="11.746" stroke="none"/>
              <ellipse cx="11.746" cy="11.746" rx="11.203" ry="11.203" fill="none"/>
            </g>
          </g>
        </g>
        <g id="Group_17" data-name="Group 17" transform="translate(114.894 0)">
          <g id="Group_16" data-name="Group 16" transform="translate(0)">
            <ellipse id="Ellipse_10" data-name="Ellipse 10" cx="11.373" cy="11.373" rx="11.373" ry="11.373" transform="translate(21.431 29.053) rotate(-160.422)" fill="#ff7300"/>
            <circle id="Ellipse_11" data-name="Ellipse 11" cx="11.373" cy="11.373" r="11.373" transform="translate(3.695 2.815)" fill="#ffb300"/>
            <circle id="Ellipse_12" data-name="Ellipse 12" cx="9.613" cy="9.613" r="9.613" transform="translate(5.456 4.576)" fill="#ffb300" opacity="0.42"/>
            <g id="Ellipse_13" data-name="Ellipse 13" transform="translate(5.456 4.576)" fill="none" stroke="#ffb300" stroke-miterlimit="10" stroke-width="0.889">
              <circle cx="9.613" cy="9.613" r="9.613" stroke="none"/>
              <circle cx="9.613" cy="9.613" r="9.168" fill="none"/>
            </g>
          </g>
        </g>
        <g id="Group_19" data-name="Group 19" transform="translate(126.757 67.317)">
          <g id="Group_18" data-name="Group 18" transform="translate(0 0)">
            <circle id="Ellipse_14" data-name="Ellipse 14" cx="25.105" cy="25.105" r="25.105" transform="translate(35.504 71.008) rotate(-135)" fill="#ff7300"/>
            <ellipse id="Ellipse_15" data-name="Ellipse 15" cx="25.105" cy="25.105" rx="25.105" ry="25.105" transform="translate(17.935 64.897) rotate(-103.094)" fill="#ffb300"/>
            <circle id="Ellipse_16" data-name="Ellipse 16" cx="21.219" cy="21.219" r="21.219" transform="translate(15.481 13.538)" fill="#ffb300" opacity="0.42"/>
            <g id="Ellipse_17" data-name="Ellipse 17" transform="translate(15.481 13.538)" fill="none" stroke="#ffb300" stroke-miterlimit="10" stroke-width="1.962">
              <circle cx="21.219" cy="21.219" r="21.219" stroke="none"/>
              <circle cx="21.219" cy="21.219" r="20.238" fill="none"/>
            </g>
          </g>
          <path id="Path_223" data-name="Path 223" d="M862.413-473.9a5.708,5.708,0,0,0-.784-.43,5.024,5.024,0,0,0,1.743-1.252,4.732,4.732,0,0,0,1.053-3.225,5.292,5.292,0,0,0-1.887-4.525,7.188,7.188,0,0,0-3.224-1.245v-6.343h-2.49v6.175h-3.175v-6.175h-2.49v6.175h-2.322v21.464h2.322v4.992h2.49v-4.992h3.175v4.992h2.49v-5.16a7.787,7.787,0,0,0,3.35-1.326,5.206,5.206,0,0,0,2.079-4.538A5.091,5.091,0,0,0,862.413-473.9Zm-5.59-6.854h.187a3.211,3.211,0,0,1,2.1.629,1.2,1.2,0,0,1,.2.2,2.19,2.19,0,0,1,.554,1.563,2.109,2.109,0,0,1-.554,1.525,1.41,1.41,0,0,1-.2.187,3.243,3.243,0,0,1-2.1.61h-3.492v-4.713h3.305Zm2.508,12.824c-.006.006-.012.012-.019.012a3.019,3.019,0,0,1-2.054.648h-3.742v-4.967h3.742a3.168,3.168,0,0,1,2.054.6c.012.012.025.019.037.031a2.268,2.268,0,0,1,.735,1.824A2.33,2.33,0,0,1,859.331-467.931Z" transform="translate(-819.724 509.793)" fill="#ffe69c"/>
        </g>
        <path id="Path_224" data-name="Path 224" d="M857.708-479.8a3.743,3.743,0,0,0-.513-.281,3.284,3.284,0,0,0,1.139-.818,3.092,3.092,0,0,0,.688-2.107,3.458,3.458,0,0,0-1.233-2.957,4.7,4.7,0,0,0-2.107-.814v-4.145h-1.627v4.036H851.98v-4.036h-1.627v4.036h-1.517v14.027h1.517v3.262h1.627v-3.262h2.075v3.262h1.627v-3.372a5.088,5.088,0,0,0,2.189-.867,3.4,3.4,0,0,0,1.359-2.966A3.327,3.327,0,0,0,857.708-479.8Zm-3.653-4.479h.122a2.1,2.1,0,0,1,1.375.411.792.792,0,0,1,.13.13,1.431,1.431,0,0,1,.362,1.021,1.379,1.379,0,0,1-.362,1,.925.925,0,0,1-.13.122,2.12,2.12,0,0,1-1.375.4H851.9v-3.08h2.16Zm1.639,8.38s-.008.008-.012.008a1.973,1.973,0,0,1-1.342.423H851.9v-3.246h2.445a2.07,2.07,0,0,1,1.342.39c.008.008.016.013.024.02a1.482,1.482,0,0,1,.48,1.192A1.522,1.522,0,0,1,855.695-475.9Z" transform="translate(-736.783 538.221)" fill="#ffe69c"/>
      </g>
    </g>
    <path id="Path_226" data-name="Path 226" d="M854.708-483.559a2.481,2.481,0,0,0-.339-.186,2.173,2.173,0,0,0,.754-.541,2.046,2.046,0,0,0,.455-1.395,2.289,2.289,0,0,0-.816-1.957,3.109,3.109,0,0,0-1.395-.539v-2.744H852.29v2.671h-1.373v-2.671H849.84v2.671h-1v9.283h1v2.159h1.077v-2.159h1.373v2.159h1.077v-2.232a3.367,3.367,0,0,0,1.449-.574,2.251,2.251,0,0,0,.9-1.963A2.2,2.2,0,0,0,854.708-483.559Zm-2.418-2.964h.081a1.389,1.389,0,0,1,.91.272.525.525,0,0,1,.086.086.947.947,0,0,1,.24.676.913.913,0,0,1-.24.66.617.617,0,0,1-.086.081,1.4,1.4,0,0,1-.91.264h-1.51v-2.038h1.43Zm1.085,5.546s-.005.005-.008.005a1.306,1.306,0,0,1-.888.28h-1.618v-2.148h1.618a1.37,1.37,0,0,1,.888.258l.016.013a.981.981,0,0,1,.318.789A1.008,1.008,0,0,1,853.375-480.977Z" transform="translate(-482.146 584.107)" fill="#ffe69c"/>
    <path id="Path_227" data-name="Path 227" d="M853.123-485.546a1.811,1.811,0,0,0-.248-.136,1.588,1.588,0,0,0,.55-.4,1.494,1.494,0,0,0,.332-1.018,1.671,1.671,0,0,0-.6-1.429,2.27,2.27,0,0,0-1.018-.393v-2h-.786v1.95h-1v-1.95h-.786v1.95h-.733v6.777h.733v1.576h.786v-1.576h1v1.576h.786v-1.629a2.46,2.46,0,0,0,1.058-.419,1.644,1.644,0,0,0,.656-1.433A1.607,1.607,0,0,0,853.123-485.546Zm-1.765-2.164h.059a1.014,1.014,0,0,1,.664.2.38.38,0,0,1,.063.063.691.691,0,0,1,.175.493.666.666,0,0,1-.175.482.448.448,0,0,1-.063.059,1.025,1.025,0,0,1-.664.193h-1.1v-1.488h1.044Zm.792,4.049s0,0-.006,0a.953.953,0,0,1-.649.2h-1.181v-1.568H851.5a1,1,0,0,1,.649.188l.012.01a.716.716,0,0,1,.232.576A.736.736,0,0,1,852.15-483.661Z" transform="translate(-523.28 563.773)" fill="#ffe69c"/>
  </g>
</svg>
