<svg xmlns="http://www.w3.org/2000/svg" width="100" height="100" viewBox="0 0 100 100">
  <g id="Group_31" data-name="Group 31" transform="translate(-969.507 -462.583)">
    <g id="Path_85" data-name="Path 85" transform="translate(969.507 462.583)">
      <path id="Path_86" data-name="Path 86" d="M67.74-257.964a50.02,50.02,0,0,1-34.578,47.576,49.762,49.762,0,0,1-11.424,2.267q-1.979.156-4,.156a50.2,50.2,0,0,1-10.6-1.125,50.02,50.02,0,0,1-39.4-48.875,49.758,49.758,0,0,1,8.1-27.289,50.217,50.217,0,0,1,8.808-10.19,50.01,50.01,0,0,1,9.965-6.86,49.78,49.78,0,0,1,23.129-5.661A50,50,0,0,1,67.74-257.964Z" transform="translate(32.26 307.964)" fill="#e8edfc"/>
    </g>
    <g id="broken-link" transform="translate(994.83 487.906)">
      <path id="Path_76" data-name="Path 76" d="M32.838-284.124a11.956,11.956,0,0,0-16.886,0l-8.443,8.44a1.84,1.84,0,0,0,0,2.6,1.84,1.84,0,0,0,2.6,0l8.443-8.443a8.265,8.265,0,0,1,11.688.176,8.266,8.266,0,0,1,0,11.513L19.2-258.792a8.278,8.278,0,0,1-11.692,0,1.838,1.838,0,0,0-2.6,0,1.836,1.836,0,0,0,0,2.6h0a11.954,11.954,0,0,0,16.886,0l11.042-11.042A11.969,11.969,0,0,0,32.838-284.124Z" transform="translate(14.136 287.614)" fill="#428dff"/>
      <path id="Path_77" data-name="Path 77" d="M12.2-251.619l-7.144,7.145a8.267,8.267,0,0,1-11.69,0,8.267,8.267,0,0,1,0-11.69h0L3.758-266.557a8.3,8.3,0,0,1,11.69,0,1.836,1.836,0,0,0,2.595-.1,1.836,1.836,0,0,0,0-2.5,11.956,11.956,0,0,0-16.886,0L-9.233-258.762a11.94,11.94,0,0,0,.078,16.886,11.94,11.94,0,0,0,16.808,0l7.145-7.145a1.836,1.836,0,0,0,0-2.6,1.835,1.835,0,0,0-2.6,0Z" transform="translate(12.691 288.882)" fill="#428dff"/>
      <path id="Path_78" data-name="Path 78" d="M16.223-250.349a1.838,1.838,0,0,0-1.844,1.831V-243a1.838,1.838,0,0,0,1.881,1.793A1.838,1.838,0,0,0,18.053-243v-5.511A1.837,1.837,0,0,0,16.223-250.349Z" transform="translate(14.983 290.769)" fill="#428dff"/>
      <path id="Path_79" data-name="Path 79" d="M22.394-251.507a1.84,1.84,0,0,0-2.6,0,1.838,1.838,0,0,0,0,2.6l3.9,3.9a1.836,1.836,0,0,0,2.6.067,1.836,1.836,0,0,0,.067-2.6c-.021-.023-.043-.044-.065-.066Z" transform="translate(15.396 290.626)" fill="#428dff"/>
      <path id="Path_80" data-name="Path 80" d="M26.786-257.123H21.275a1.838,1.838,0,0,0-1.882,1.793,1.837,1.837,0,0,0,1.793,1.881c.029,0,.059,0,.089,0h5.511a1.836,1.836,0,0,0,1.881-1.792,1.838,1.838,0,0,0-1.792-1.882Z" transform="translate(15.408 290.196)" fill="#428dff"/>
      <path id="Path_81" data-name="Path 81" d="M2.674-275.883a1.838,1.838,0,0,0,1.833-1.836v-5.512a1.839,1.839,0,0,0-1.838-1.839A1.839,1.839,0,0,0,.83-283.232v5.512a1.836,1.836,0,0,0,1.838,1.836Z" transform="translate(13.836 287.83)" fill="#428dff"/>
      <path id="Path_82" data-name="Path 82" d="M-3.406-274.854a1.836,1.836,0,0,0,2.6,0,1.838,1.838,0,0,0,0-2.6l-3.9-3.9a1.838,1.838,0,0,0-2.6,0,1.836,1.836,0,0,0,0,2.6Z" transform="translate(13.102 288.099)" fill="#428dff"/>
      <path id="Path_83" data-name="Path 83" d="M-7.524-269.539h5.511A1.837,1.837,0,0,0-.221-271.42a1.838,1.838,0,0,0-1.792-1.793H-7.524a1.839,1.839,0,0,0-1.793,1.882A1.838,1.838,0,0,0-7.524-269.539Z" transform="translate(12.977 288.833)" fill="#428dff"/>
    </g>
  </g>
</svg>
