<svg xmlns="http://www.w3.org/2000/svg" width="100" height="100" viewBox="0 0 100 100">
  <g id="Group_32" data-name="Group 32" transform="translate(-626.386 -463.507)">
    <g id="Path_85" data-name="Path 85" transform="translate(626.386 463.507)">
      <path id="Path_91" data-name="Path 91" d="M285.915-293.319a50.021,50.021,0,0,1,9.191,58.091,49.849,49.849,0,0,1-6.476,9.682q-1.289,1.509-2.715,2.937a50.134,50.134,0,0,1-8.293,6.7,50.018,50.018,0,0,1-62.417-6.7,49.76,49.76,0,0,1-13.571-25.022,50.3,50.3,0,0,1-.978-13.435,50.139,50.139,0,0,1,2.2-11.9A49.786,49.786,0,0,1,215.2-293.319,50,50,0,0,1,285.915-293.319Z" transform="translate(-200.559 307.964)" fill="#e8edfc"/>
    </g>
    <g id="Group_24" data-name="Group 24" transform="translate(644.76 475.247)">
      <path id="Path_137" data-name="Path 137" d="M295.789,417.086a13.929,13.929,0,1,1-13.771-13.956A13.969,13.969,0,0,1,295.789,417.086Zm-6.154,8.192a11.319,11.319,0,0,0,.131-16.464,11.47,11.47,0,0,0-16.615.85c-3.911,4.744-3.452,12.392,1.019,15.509,1.242-2.465,3.376-3.2,5.979-3.037a28.2,28.2,0,0,0,3.42,0C286.174,421.978,288.292,422.745,289.635,425.278Zm-7.705-.681a13.7,13.7,0,0,0-2.9.047,5.6,5.6,0,0,0-2.32,1.2c-.6.509-.584,1.192.335,1.585a11.475,11.475,0,0,0,9.616-.067,1.663,1.663,0,0,0,.411-1.371,6.936,6.936,0,0,0-2.415-1.35A11.047,11.047,0,0,0,281.93,424.6Z" transform="translate(-247.654 -377.937)" fill="#428dff"/>
      <path id="Path_138" data-name="Path 138" d="M367.426,384.662a6.885,6.885,0,0,1,6.964-7.077,7.106,7.106,0,0,1,7.081,7.042,7.206,7.206,0,0,1-7.135,7.027A6.988,6.988,0,0,1,367.426,384.662Zm2.45-.08a4.638,4.638,0,0,0,4.556,4.61,4.712,4.712,0,0,0,4.536-4.487,4.627,4.627,0,0,0-4.505-4.65A4.5,4.5,0,0,0,369.876,384.582Z" transform="translate(-313.056 -361.522)" fill="#428dff"/>
      <path id="Path_139" data-name="Path 139" d="M222.794,384.6a7,7,0,0,1-7.022,7.056,7.2,7.2,0,0,1-7.02-7.14,7.075,7.075,0,0,1,7.014-6.93A6.881,6.881,0,0,1,222.794,384.6Zm-2.451.077a4.507,4.507,0,0,0-4.5-4.621,4.627,4.627,0,0,0-4.6,4.556,4.721,4.721,0,0,0,4.625,4.58A4.626,4.626,0,0,0,220.343,384.674Z" transform="translate(-208.752 -361.521)" fill="#428dff"/>
      <path id="Path_140" data-name="Path 140" d="M374.476,482.986a6.879,6.879,0,0,1-7.05-6.99,7,7,0,0,1,7-7.079,7.189,7.189,0,0,1,7.044,7.115A7.081,7.081,0,0,1,374.476,482.986Zm4.5-7.066a4.729,4.729,0,0,0-4.666-4.537,4.613,4.613,0,0,0-4.43,4.555,4.512,4.512,0,0,0,4.542,4.579A4.617,4.617,0,0,0,378.972,475.92Z" transform="translate(-313.056 -420.807)" fill="#428dff"/>
      <path id="Path_141" data-name="Path 141" d="M222.8,475.994a6.9,6.9,0,0,1-6.923,6.991,7.087,7.087,0,0,1-7.118-7.042,7.225,7.225,0,0,1,7-7.027A6.992,6.992,0,0,1,222.8,475.994Zm-7.008,4.521a4.5,4.5,0,0,0,4.559-4.555,4.656,4.656,0,0,0-4.584-4.583,4.72,4.72,0,0,0-4.508,4.516A4.622,4.622,0,0,0,215.788,480.515Z" transform="translate(-208.754 -420.806)" fill="#428dff"/>
      <path id="Path_142" data-name="Path 142" d="M302.16,338.839a6.988,6.988,0,1,1-6.9-7.031A6.944,6.944,0,0,1,302.16,338.839Zm-2.507,0a4.484,4.484,0,1,0-8.967-.088,4.485,4.485,0,1,0,8.967.088Z" transform="translate(-260.966 -331.808)" fill="#428dff"/>
      <path id="Path_143" data-name="Path 143" d="M295.289,514.794a7.018,7.018,0,1,1-7.095,6.986A6.928,6.928,0,0,1,295.289,514.794Zm4.38,7.011a4.485,4.485,0,1,0-8.969-.091,4.486,4.486,0,1,0,8.969.091Z" transform="translate(-260.973 -450.586)" fill="#428dff"/>
      <path id="Path_144" data-name="Path 144" d="M307.4,496.169h-2.2v-6.4l2.2-.106Z" transform="translate(-272.154 -434.412)" fill="#428dff"/>
      <path id="Path_145" data-name="Path 145" d="M307.608,385.362h-2.227V379h2.227Z" transform="translate(-272.271 -362.485)" fill="#428dff"/>
      <path id="Path_146" data-name="Path 146" d="M251.555,408.141l5.622,3.248-1.159,2.166-5.758-3.3Z" transform="translate(-236.038 -381.433)" fill="#428dff"/>
      <path id="Path_147" data-name="Path 147" d="M353.593,466.929l-1.29,2.1-5.643-3.242,1.2-2.161Z" transform="translate(-299.405 -417.503)" fill="#428dff"/>
      <path id="Path_148" data-name="Path 148" d="M352.262,408.144l1.287,2.074-5.719,3.345-1.222-2.149Z" transform="translate(-299.371 -381.435)" fill="#428dff"/>
      <path id="Path_149" data-name="Path 149" d="M250.284,466.948l5.729-3.324,1.2,2.142-5.635,3.258Z" transform="translate(-236.053 -417.503)" fill="#428dff"/>
      <path id="Path_150" data-name="Path 150" d="M216.7,454.865l.449,2.517-2.352.565-.5-2.669Z" transform="translate(-212.397 -411.837)" fill="#428dff"/>
      <path id="Path_151" data-name="Path 151" d="M394.541,457.576l.442-2.453,2.335.266-.368,2.706Z" transform="translate(-330.88 -412.006)" fill="#428dff"/>
      <path id="Path_152" data-name="Path 152" d="M396.852,423.688c.178.906.334,1.705.522,2.668l-2.374.416-.505-2.5Z" transform="translate(-330.85 -391.561)" fill="#428dff"/>
      <path id="Path_153" data-name="Path 153" d="M216.775,426.812l-2.335-.424.42-2.642,2.386.542Z" transform="translate(-212.491 -391.599)" fill="#428dff"/>
      <path id="Path_154" data-name="Path 154" d="M273,356.55l-.973-2.24,2.488-.981.876,2.3Z" transform="translate(-250.345 -345.955)" fill="#428dff"/>
      <path id="Path_155" data-name="Path 155" d="M259.954,359.547l1.176,2.115-2.124,1.329-1.4-2.05Z" transform="translate(-240.863 -350.042)" fill="#428dff"/>
      <path id="Path_156" data-name="Path 156" d="M349.149,361.694l1.183-2.153,2.353,1.368-1.284,2.056Z" transform="translate(-301.042 -350.038)" fill="#428dff"/>
      <path id="Path_157" data-name="Path 157" d="M337.752,356.611l-2.382-.89.781-2.27,2.558.908Z" transform="translate(-291.984 -346.035)" fill="#428dff"/>
      <path id="Path_158" data-name="Path 158" d="M213.862,439.77l2.263.134v2.449h-2.263Z" transform="translate(-212.111 -402.025)" fill="#428dff"/>
      <path id="Path_159" data-name="Path 159" d="M398.729,442.538h-2.047c-.6-2.484-.412-2.717,2.047-2.457Z" transform="translate(-332.098 -402.174)" fill="#428dff"/>
      <path id="Path_160" data-name="Path 160" d="M260.016,521.46l-2.344-1.414L258.981,518l2.222,1.284Z" transform="translate(-240.909 -452.696)" fill="#428dff"/>
      <path id="Path_161" data-name="Path 161" d="M349.234,519.254l2.166-1.291,1.356,1.986-2.333,1.46Z" transform="translate(-301.097 -452.67)" fill="#428dff"/>
      <path id="Path_162" data-name="Path 162" d="M273.005,524.932l2.374.865-.829,2.3-2.539-.953Z" transform="translate(-250.335 -457.251)" fill="#428dff"/>
      <path id="Path_163" data-name="Path 163" d="M335.293,525.794l2.376-.89,1.03,2.2-2.539,1Z" transform="translate(-291.933 -457.233)" fill="#428dff"/>
      <path id="Path_164" data-name="Path 164" d="M246.387,371.858l-1.686-1.81,2.1-1.717,1.511,1.887Z" transform="translate(-232.383 -355.558)" fill="#428dff"/>
      <path id="Path_165" data-name="Path 165" d="M365.534,370.012l-1.656,1.766-1.98-1.536,1.487-1.958Z" transform="translate(-309.422 -355.528)" fill="#428dff"/>
      <path id="Path_166" data-name="Path 166" d="M244.653,510.848l1.652-1.769,1.984,1.531-1.483,1.965Z" transform="translate(-232.351 -447.087)" fill="#428dff"/>
      <path id="Path_167" data-name="Path 167" d="M363.414,512.279l-1.511-1.9,2.046-1.727,1.5,1.963Z" transform="translate(-309.425 -446.81)" fill="#428dff"/>
      <path id="Path_176" data-name="Path 176" d="M298.195,432.22a5.413,5.413,0,1,1,5.374-5.489A5.507,5.507,0,0,1,298.195,432.22Zm2.894-5.347a3.031,3.031,0,0,0-2.92-2.984,2.926,2.926,0,1,0-.121,5.85A3.028,3.028,0,0,0,301.089,426.872Z" transform="translate(-263.907 -389.996)" fill="#428dff"/>
      <g id="Group_23" data-name="Group 23" transform="translate(2.495 2.457)">
        <path id="Path_168" data-name="Path 168" d="M294.548,430.132c-1.343-2.533-3.461-3.3-6.066-3.142a28.209,28.209,0,0,1-3.42,0c-2.6-.159-4.737.572-5.979,3.037-4.471-3.117-4.93-10.765-1.019-15.509a11.47,11.47,0,0,1,16.615-.85A11.319,11.319,0,0,1,294.548,430.132Zm-7.694-5.066a5.413,5.413,0,1,0-5.536-5.321A5.508,5.508,0,0,0,286.854,425.066Z" transform="translate(-255.062 -385.293)" fill="#fff"/>
        <path id="Path_169" data-name="Path 169" d="M297.984,465.656a11.079,11.079,0,0,1,2.728.048,6.937,6.937,0,0,1,2.415,1.35,1.663,1.663,0,0,1-.411,1.371,11.475,11.475,0,0,1-9.617.067c-.919-.393-.933-1.075-.335-1.585a5.6,5.6,0,0,1,2.32-1.2A13.753,13.753,0,0,1,297.984,465.656Z" transform="translate(-266.203 -421.244)" fill="#fff"/>
        <path id="Path_170" data-name="Path 170" d="M374.576,389.32a4.5,4.5,0,0,1,4.587-4.527,4.627,4.627,0,0,1,4.505,4.65,4.712,4.712,0,0,1-4.536,4.487A4.638,4.638,0,0,1,374.576,389.32Z" transform="translate(-320.251 -368.716)" fill="#fff"/>
        <path id="Path_171" data-name="Path 171" d="M225.129,389.413a4.626,4.626,0,0,1-4.471,4.514,4.721,4.721,0,0,1-4.625-4.58,4.627,4.627,0,0,1,4.6-4.556A4.506,4.506,0,0,1,225.129,389.413Z" transform="translate(-216.033 -368.716)" fill="#fff"/>
        <path id="Path_172" data-name="Path 172" d="M383.672,480.648a4.617,4.617,0,0,1-4.555,4.6,4.512,4.512,0,0,1-4.542-4.578,4.613,4.613,0,0,1,4.43-4.555A4.729,4.729,0,0,1,383.672,480.648Z" transform="translate(-320.251 -427.992)" fill="#fff"/>
        <path id="Path_173" data-name="Path 173" d="M220.583,485.237a4.622,4.622,0,0,1-4.533-4.622,4.72,4.72,0,0,1,4.508-4.516,4.656,4.656,0,0,1,4.584,4.583A4.5,4.5,0,0,1,220.583,485.237Z" transform="translate(-216.044 -427.985)" fill="#fff"/>
        <path id="Path_174" data-name="Path 174" d="M304.452,343.55a4.485,4.485,0,1,1-8.967-.088,4.484,4.484,0,1,1,8.967.088Z" transform="translate(-268.26 -338.978)" fill="#fff"/>
        <path id="Path_175" data-name="Path 175" d="M304.475,526.53a4.486,4.486,0,1,1-8.969-.091,4.485,4.485,0,1,1,8.969.091Z" transform="translate(-268.274 -457.769)" fill="#fff"/>
        <path id="Path_177" data-name="Path 177" d="M305.809,431.654a3.028,3.028,0,0,1-3.04,2.866,2.926,2.926,0,1,1,3.04-2.866Z" transform="translate(-271.122 -397.235)" fill="#fff"/>
      </g>
    </g>
  </g>
</svg>
