<svg xmlns="http://www.w3.org/2000/svg" width="100" height="102.493" viewBox="0 0 100 102.493">
  <g id="Group_33" data-name="Group 33" transform="translate(-246 -464)">
    <g id="Path_85" data-name="Path 85" transform="translate(246 464)">
      <path id="Path_100" data-name="Path 100" d="M180.342-256.717c0,22.788-14.511,42.1-34.578,48.763a48.7,48.7,0,0,1-11.424,2.324q-1.979.16-4,.16a49.023,49.023,0,0,1-10.6-1.153c-22.522-4.985-39.4-25.519-39.4-50.093a51.919,51.919,0,0,1,8.1-27.969,51.135,51.135,0,0,1,8.808-10.445,49.991,49.991,0,0,1,9.965-7.031,48.811,48.811,0,0,1,23.129-5.8C157.956-307.964,180.342-285.019,180.342-256.717Z" transform="translate(-80.342 307.964)" fill="#e8edfc"/>
    </g>
    <g id="Group_26" data-name="Group 26" transform="translate(266 487)">
      <path id="Path_178" data-name="Path 178" d="M-108.26,324.667c1.171.445,2.41.84,3.584,1.378a3.68,3.68,0,0,1,2.462,3.916,34.123,34.123,0,0,0,0,5,3.684,3.684,0,0,1-2.053,3.655,17.483,17.483,0,0,1-3.058,1.4,1.205,1.205,0,0,0-.947,1.373c.041,2.114.014,4.23.014,6.5.2.123.527.345.873.529a3.666,3.666,0,0,1,2.182,3.7,29.036,29.036,0,0,0,.01,4.46,4.217,4.217,0,0,1-3.1,4.782,49.593,49.593,0,0,1-9.716,2.647,139.807,139.807,0,0,1-17.221,1.073,61.894,61.894,0,0,1-19.551-2.844,18.817,18.817,0,0,1-2.354-1,4.294,4.294,0,0,1-2.756-4.488,52.766,52.766,0,0,0,.01-5.677,1.537,1.537,0,0,0-.631-1.122,4.07,4.07,0,0,1-2.363-4.3,41.229,41.229,0,0,0,.018-5,2.988,2.988,0,0,1,1.648-3.009,22.489,22.489,0,0,1,3.444-1.5,1.135,1.135,0,0,0,.953-1.322c-.038-1.848-.052-3.7.007-5.545a1.218,1.218,0,0,0-.922-1.37,28.353,28.353,0,0,1-3.617-1.784,3,3,0,0,1-1.51-2.832c.039-2.028.028-4.058,0-6.086a2.613,2.613,0,0,1,1.5-2.664,32.757,32.757,0,0,1,6.7-2.317c4.116-.7,8.3-1.039,12.464-1.4a100.858,100.858,0,0,1,20.894.614,65.6,65.6,0,0,1,9.837,2.2,4.162,4.162,0,0,1,3.24,4.791C-108.391,320.478-108.26,322.554-108.26,324.667Zm-27.32-12.1c-3.418.152-6.859.1-10.246.506-4.179.5-8.325,1.314-12.455,2.141a8.112,8.112,0,0,0-2.394,1.517,11.19,11.19,0,0,0,2.26,1.667c5.927,2.4,12.216,2.913,18.5,3.227a81.479,81.479,0,0,0,20.692-1.375,49.736,49.736,0,0,0,7.795-2.494c1.363-.529,1.291-1.393-.065-2.022a17.331,17.331,0,0,0-3.174-1.1C-121.535,312.953-128.542,312.667-135.58,312.568Zm-18.878,16.389-.177.432a16.32,16.32,0,0,0,3.045,1.449c3.353.828,6.716,1.7,10.127,2.188a84.621,84.621,0,0,0,29.292-.858,50.03,50.03,0,0,0,6.763-2.225,1.533,1.533,0,0,0,.92-1.02c.014-.323-.522-.8-.92-.986-2.247-1.034-4.516-2.175-6.934-.393a1.5,1.5,0,0,1-.381.134,57.277,57.277,0,0,1-14.67,2.8,93.36,93.36,0,0,1-22.1-.675C-151.152,329.553-152.8,329.24-154.458,328.956Zm41.2,13.271-.063-.559c-.354.02-.71.029-1.063.06-4.79.419-9.583,1.2-14.37,1.166a128.4,128.4,0,0,1-16.646-1.341,31.979,31.979,0,0,1-8.946-2.79c-1.575-.734-2.785-.991-4.212-.209a22.054,22.054,0,0,0-2.113,1.484c.728.547,1.381,1.368,2.2,1.592a92.784,92.784,0,0,0,10.324,2.462,85.276,85.276,0,0,0,23.828.193C-120.6,343.812-116.94,342.926-113.254,342.227Zm-44.053,9.293-.121.205a25.89,25.89,0,0,0,2.661,1.312,47.856,47.856,0,0,0,14.4,2.682c5.207.216,10.438.211,15.645,0a47.746,47.746,0,0,0,14.4-2.687,11.967,11.967,0,0,0,2.474-1.327,1.017,1.017,0,0,0,.183-.978,2.682,2.682,0,0,0-3.065-.753,23.665,23.665,0,0,1-4.52,1.686c-4.005.779-8.036,1.491-12.088,1.955a84.613,84.613,0,0,1-21.8-.528C-151.88,352.693-154.585,352.05-157.306,351.52Zm26.828-2.112c0-.314,0-.627,0-.941,0-1.664,0-1.664-1.719-1.575-2.415.126-2.415.126-2.416,2.485a7.331,7.331,0,0,1-.008,1.074c-.185,1.237.308,1.65,1.556,1.585C-129.864,351.87-130.559,352.13-130.479,349.408Zm-3.946-13.559c-.952,4.47-.352,5.288,3.6,4.968.073-.006.14-.09.206-.134.724-4.521.426-4.926-3.6-4.908A1,1,0,0,0-134.425,335.85Zm3.946-9.659a8.583,8.583,0,0,1,.009-1.215c.161-1.121-.36-1.363-1.39-1.347-2.752.044-2.753,0-2.753,2.785q0,.338,0,.676c0,1.769,0,1.769,1.775,1.647C-130.479,328.575-130.479,328.575-130.479,326.19Zm-6.127,20.815c-1.2-.058-2.306-.141-3.412-.135-.189,0-.528.379-.538.594-.054,1.256-.056,2.517-.01,3.774.009.234.3.637.491.654a22.74,22.74,0,0,0,2.959.066c.178-.008.479-.406.487-.631C-136.583,349.94-136.606,348.551-136.606,347.005Zm8.158-6.161c1.095,0,2.08.048,3.056-.028.306-.024.826-.37.838-.59.075-1.465.039-2.936.039-4.308h-3.932Zm-8.242-12.122v-4.857c-.563-.067-1.046-.137-1.532-.18-2.373-.209-2.374-.206-2.373,2.156a11.646,11.646,0,0,0,.037,2.012c.057.322.453.8.734.828C-138.816,328.784-137.792,328.722-136.69,328.722Zm5.284,34.287h3.812v-4.76c-1.18-.025-2.361-.053-3.541-.071-.074,0-.149.075-.271.14Zm-2.261-4.806c-1.071-.068-2.046-.176-3.02-.164-.3,0-.855.32-.865.514-.074,1.458-.04,2.922-.04,4.46h3.924ZM-144.6,334.916v4.8l3.035.4v-2.51C-141.566,334.923-141.566,334.923-144.6,334.916Zm26.252-7.5c1.15-.543,2.663-.785,2.906-1.475.441-1.251.125-2.769.125-4.347l-3.031.717Zm-5.157,23.83c1-.14,1.791-.21,2.559-.387a.867.867,0,0,0,.513-.637c.048-1.377.024-2.756.024-4.277a18.312,18.312,0,0,0-2.289.284c-.309.077-.756.45-.771.71C-123.547,348.307-123.506,349.686-123.506,351.242Zm3.1-28.571c-.915.12-1.664.181-2.394.334-.249.052-.636.331-.643.518-.054,1.446-.03,2.894-.03,4.466a17.658,17.658,0,0,0,2.261-.311c.309-.085.755-.448.769-.705C-120.366,325.6-120.407,324.213-120.407,322.672ZM-115.3,344.8l-3.034.739v4.674c2.665.011,3.034-.336,3.034-2.78Zm-34.489-11.059V335.9c0,2.754,0,2.755,2.711,3.274.072.014.16-.057.4-.153,0-1.306.025-2.681-.024-4.053a.9.9,0,0,0-.508-.666C-148,334.07-148.83,333.942-149.79,333.745Zm27.366,6.776a14,14,0,0,0,2.137-.033c.294-.048.744-.441.757-.7.074-1.411.035-2.829.035-4.379l-2.929.3Zm-14.254-4.859-2.87-.206v4.974l2.87.182Zm-5.854,26.858c2.917.654,2.917.654,2.917-2.071v-.135c0-2.64,0-2.641-2.614-2.638-.077,0-.154.061-.3.124Zm19.963-.011v-4.748c-2.883-.251-2.908-.229-2.908,2.445v.135C-125.477,363.213-125.471,363.217-122.569,362.509Zm-20.037-34.188V325.48c0-2.057,0-2.058-2.049-2.167-.258-.014-.518,0-.952,0v2.733c0,2.479,0,2.48,2.538,2.415A2.86,2.86,0,0,0-142.606,328.321Zm14.188-4.69v4.746a15.112,15.112,0,0,0,2.178-.034,1.06,1.06,0,0,0,.724-.706c.071-1.42.034-2.845.034-4.288-.644,0-1.131-.035-1.611.011A12.125,12.125,0,0,0-128.418,323.631Zm-17.188,23.086v2.569c0,2.493,0,2.495,2.544,2.4a1.94,1.94,0,0,0,.456-.164v-2.4c0-2.649,0-2.649-2.715-2.546A1.558,1.558,0,0,0-145.606,346.718Zm20.036,4.816V346.48l-2.837.314v4.948Zm-22.157-.28v-2.96c0-2.2,0-2.206-2.218-2.278a5.189,5.189,0,0,0-.712.086c0,1.381-.038,2.68.029,3.973a1.106,1.106,0,0,0,.622.8A16.879,16.879,0,0,0-147.727,351.253Zm-2.93-28.584v3.042c0,2.046,0,2.05,2.056,2.172a6.128,6.128,0,0,0,.769-.048v-4.761Zm36.131,17.052v-4.885a14.79,14.79,0,0,0-2.071.266c-.3.08-.718.456-.732.716-.073,1.374-.034,2.753-.034,4.312Zm-5.767,22.6a15,15,0,0,0,2.109-.292c.3-.084.712-.468.726-.735.073-1.376.034-2.758.034-4.281l-2.87.423Zm-27.379-5.283a24.45,24.45,0,0,1-.027,3.248c-.208,1.477.491,1.941,1.786,1.948.346,0,.692,0,1.093,0v-4.815Zm-5.118-1.087c0,1.566-.033,2.906.028,4.24a1.055,1.055,0,0,0,.607.729,22.979,22.979,0,0,0,2.283.58V356.62Zm40.485-.008-2.923.7v4.85a23.02,23.02,0,0,0,2.27-.564,1.058,1.058,0,0,0,.623-.716C-112.27,358.874-112.3,357.535-112.3,355.941Zm.01-16.645c.947-.233,1.65-.371,2.326-.591.248-.081.612-.349.619-.542.052-1.441.029-2.884.029-4.409a17.5,17.5,0,0,0-2.225.458c-.3.1-.7.485-.715.759C-112.332,336.354-112.293,337.743-112.293,339.3Zm-43.491,5.529v2.514c0,2.507,0,2.508,2.486,2.958a1.6,1.6,0,0,0,.43-.055v-4.728Zm0-23.224c0,1.538-.041,2.837.03,4.13a1.2,1.2,0,0,0,.639.85,17.773,17.773,0,0,0,2.241.583v-4.886Zm-4.853-1.685c-.5,4.059.06,5.2,2.666,5.549C-157.132,321.676-157.574,320.729-160.635,319.916Zm56.183,12c-.793.326-1.5.571-2.164.91-.276.142-.629.474-.641.733-.064,1.359-.03,2.724-.03,4.123C-104.436,337.088-103.984,336.141-104.452,331.919Zm-56.3,11.2c0,.96,0,1.884,0,2.807,0,1.739.886,2.6,2.788,2.733C-157.176,344.918-157.665,343.886-160.755,343.124Zm50.285-23.339c-.826.339-1.546.588-2.217.931-.278.142-.63.478-.643.741-.065,1.324-.03,2.654-.03,4.008C-110.509,325.021-109.913,323.812-110.47,319.785Zm-44.556,40.125c.919-3.609.154-5.206-2.725-5.632v2.154C-157.751,358.8-157.451,359.19-155.026,359.91Zm47.524-6c-1.014.676-2.375,1.091-2.657,1.887-.429,1.213-.113,2.691-.113,4.11C-106.9,358.951-107.2,358.488-107.5,353.91Zm-5.871-5.167c3.378-.854,3.316-1.608,2.813-5.694a21.424,21.424,0,0,0-2.2.934,1.3,1.3,0,0,0-.586.905C-113.413,346.132-113.373,347.38-113.373,348.744Zm-38.476-11.158c.59-4.092.183-4.9-2.909-5.589,0,.781,0,1.532,0,2.282C-154.757,336.439-154.167,337.129-151.848,337.586Z" transform="translate(162.906 -310.525)" fill="#478fff"/>
      <g id="Group_25" data-name="Group 25" transform="translate(2.105 2.043)">
        <path id="Path_179" data-name="Path 179" d="M-129.568,318.075c7.038.1,14.045.385,20.917,2.064a17.342,17.342,0,0,1,3.174,1.1c1.356.63,1.427,1.493.065,2.022a49.736,49.736,0,0,1-7.795,2.494,81.474,81.474,0,0,1-20.692,1.375c-6.288-.314-12.577-.826-18.5-3.227a11.191,11.191,0,0,1-2.26-1.667,8.113,8.113,0,0,1,2.394-1.517c4.13-.827,8.276-1.642,12.455-2.141C-136.428,318.176-132.986,318.227-129.568,318.075Z" transform="translate(154.789 -318.075)" fill="#fff"/>
        <path id="Path_180" data-name="Path 180" d="M-132.164,372.318c1.655.283,3.306.6,4.967.844a93.362,93.362,0,0,0,22.1.675,57.279,57.279,0,0,0,14.67-2.8,1.5,1.5,0,0,0,.381-.134c2.419-1.783,4.687-.641,6.934.393.4.183.934.664.92.986a1.533,1.533,0,0,1-.92,1.02,50.04,50.04,0,0,1-6.763,2.225,84.62,84.62,0,0,1-29.292.858c-3.411-.491-6.774-1.36-10.127-2.188a16.316,16.316,0,0,1-3.045-1.449Z" transform="translate(138.507 -355.929)" fill="#fff"/>
        <path id="Path_181" data-name="Path 181" d="M-107.218,416.495c-3.686.7-7.349,1.585-11.064,2.059a85.274,85.274,0,0,1-23.827-.193,92.748,92.748,0,0,1-10.324-2.463c-.816-.224-1.469-1.046-2.2-1.592a22.07,22.07,0,0,1,2.113-1.484c1.428-.782,2.638-.525,4.212.209a31.977,31.977,0,0,0,8.946,2.79,128.418,128.418,0,0,0,16.646,1.341c4.787.036,9.579-.747,14.37-1.166.354-.031.709-.041,1.063-.06Z" transform="translate(154.765 -386.835)" fill="#fff"/>
        <path id="Path_182" data-name="Path 182" d="M-142.539,457.359c2.721.53,5.426,1.173,8.167,1.57a84.621,84.621,0,0,0,21.8.528c4.052-.464,8.083-1.176,12.088-1.955a23.661,23.661,0,0,0,4.52-1.686,2.682,2.682,0,0,1,3.065.753,1.017,1.017,0,0,1-.183.978,11.972,11.972,0,0,1-2.474,1.327,47.749,47.749,0,0,1-14.4,2.686c-5.208.209-10.438.214-15.645,0a47.854,47.854,0,0,1-14.4-2.682,25.889,25.889,0,0,1-2.661-1.312Z" transform="translate(146.033 -418.407)" fill="#fff"/>
        <path id="Path_183" data-name="Path 183" d="M-54.338,447.357c-.081,2.722.615,2.462-2.586,2.629-1.247.065-1.74-.347-1.556-1.585a7.329,7.329,0,0,0,.008-1.074c0-2.36,0-2.36,2.416-2.485,1.714-.089,1.714-.089,1.719,1.575C-54.337,446.73-54.338,447.044-54.338,447.357Z" transform="translate(84.66 -410.517)" fill="#fff"/>
        <path id="Path_184" data-name="Path 184" d="M-58.723,403.911a1,1,0,0,1,.209-.075c4.024-.018,4.321.387,3.6,4.908-.066.045-.133.129-.206.135C-59.074,409.2-59.675,408.381-58.723,403.911Z" transform="translate(85.098 -380.629)" fill="#fff"/>
        <path id="Path_185" data-name="Path 185" d="M-54.215,361.51c0,2.385,0,2.385-2.359,2.546-1.772.122-1.773.122-1.775-1.647q0-.338,0-.676c0-2.783,0-2.741,2.753-2.785,1.03-.017,1.552.225,1.39,1.346A8.587,8.587,0,0,0-54.215,361.51Z" transform="translate(84.537 -347.887)" fill="#fff"/>
        <path id="Path_186" data-name="Path 186" d="M-76.477,444.976c0,1.546.023,2.935-.023,4.321-.007.226-.308.624-.487.631a22.724,22.724,0,0,1-2.959-.066c-.189-.017-.483-.42-.491-.654-.047-1.257-.044-2.518.01-3.774.009-.215.349-.593.538-.594C-78.783,444.835-77.677,444.918-76.477,444.976Z" transform="translate(100.672 -410.538)" fill="#fff"/>
        <path id="Path_187" data-name="Path 187" d="M-35.567,409.292v-4.927h3.932c0,1.373.036,2.843-.039,4.308-.011.22-.532.567-.838.59C-33.487,409.34-34.472,409.292-35.567,409.292Z" transform="translate(67.919 -381.015)" fill="#fff"/>
        <path id="Path_188" data-name="Path 188" d="M-76.622,363.971c-1.1,0-2.126.061-3.135-.039-.281-.028-.677-.506-.734-.828a11.644,11.644,0,0,1-.037-2.012c0-2.363,0-2.365,2.373-2.156.485.043.968.113,1.532.18Z" transform="translate(100.733 -347.816)" fill="#fff"/>
        <path id="Path_189" data-name="Path 189" d="M-46.5,491.46v-4.691c.122-.065.2-.141.271-.14,1.181.018,2.361.046,3.541.071v4.76Z" transform="translate(75.893 -441.019)" fill="#fff"/>
        <path id="Path_190" data-name="Path 190" d="M-65.454,486.279v4.81h-3.924c0-1.538-.034-3,.04-4.46.01-.195.561-.51.865-.514C-67.5,486.1-66.525,486.212-65.454,486.279Z" transform="translate(92.587 -440.643)" fill="#fff"/>
        <path id="Path_191" data-name="Path 191" d="M-95.259,400.664c3.035.007,3.035.007,3.035,2.69v2.51l-3.035-.4Z" transform="translate(111.459 -378.316)" fill="#fff"/>
        <path id="Path_192" data-name="Path 192" d="M1.754,357.242v-5.105l3.031-.717c0,1.578.316,3.1-.125,4.347C4.417,356.457,2.9,356.7,1.754,357.242Z" transform="translate(40.697 -342.397)" fill="#fff"/>
        <path id="Path_193" data-name="Path 193" d="M-17.332,446.71c0-1.556-.041-2.935.036-4.307.015-.26.462-.633.771-.71a18.317,18.317,0,0,1,2.289-.284c0,1.521.024,2.9-.024,4.277a.867.867,0,0,1-.513.637C-15.542,446.5-16.335,446.569-17.332,446.71Z" transform="translate(54.627 -408.035)" fill="#fff"/>
        <path id="Path_194" data-name="Path 194" d="M-14.128,355.414c0,1.542.04,2.926-.036,4.3-.014.258-.46.62-.769.705a17.653,17.653,0,0,1-2.261.311c0-1.572-.024-3.021.029-4.466.007-.187.394-.466.643-.518C-15.792,355.595-15.043,355.534-14.128,355.414Z" transform="translate(54.523 -345.31)" fill="#fff"/>
        <path id="Path_195" data-name="Path 195" d="M4.84,437.2v2.632c0,2.444-.369,2.791-3.034,2.78v-4.673Z" transform="translate(40.66 -404.968)" fill="#fff"/>
        <path id="Path_196" data-name="Path 196" d="M-114.437,396.337c.96.2,1.787.325,2.584.556a.9.9,0,0,1,.508.666c.048,1.372.024,2.747.024,4.053-.245.1-.333.166-.4.153-2.71-.519-2.71-.52-2.711-3.274Z" transform="translate(125.447 -375.159)" fill="#fff"/>
        <path id="Path_197" data-name="Path 197" d="M-13.305,407.608V402.8l2.929-.3c0,1.55.039,2.968-.035,4.379-.014.255-.463.648-.757.7A14,14,0,0,1-13.305,407.608Z" transform="translate(51.682 -379.655)" fill="#fff"/>
        <path id="Path_198" data-name="Path 198" d="M-73.716,402.864v4.95l-2.87-.182v-4.974Z" transform="translate(97.839 -379.77)" fill="#fff"/>
        <path id="Path_199" data-name="Path 199" d="M-87.612,489.618V484.9c.15-.063.226-.124.3-.124,2.614,0,2.614,0,2.614,2.638v.135C-84.695,490.272-84.695,490.272-87.612,489.618Z" transform="translate(105.881 -439.665)" fill="#fff"/>
        <path id="Path_200" data-name="Path 200" d="M-21.679,489.565c-2.9.708-2.908.7-2.908-2.169v-.135c0-2.674.025-2.7,2.908-2.445Z" transform="translate(59.911 -439.623)" fill="#fff"/>
        <path id="Path_201" data-name="Path 201" d="M-95.976,362.773a2.859,2.859,0,0,1-.462.137c-2.538.065-2.538.064-2.538-2.415v-2.733c.434,0,.694-.012.952,0,2.049.11,2.048.111,2.049,2.168Z" transform="translate(114.17 -347.019)" fill="#fff"/>
        <path id="Path_202" data-name="Path 202" d="M-35.456,358.166a12.138,12.138,0,0,1,1.325-.271c.479-.046.967-.011,1.611-.011,0,1.444.037,2.869-.034,4.288a1.06,1.06,0,0,1-.724.706,15.112,15.112,0,0,1-2.178.034Z" transform="translate(67.839 -347.102)" fill="#fff"/>
        <path id="Path_203" data-name="Path 203" d="M-98.976,443.82a1.554,1.554,0,0,1,.285-.138c2.715-.1,2.715-.1,2.715,2.546v2.4a1.935,1.935,0,0,1-.456.164c-2.544.091-2.544.09-2.544-2.4Z" transform="translate(114.17 -409.67)" fill="#fff"/>
        <path id="Path_204" data-name="Path 204" d="M-32.581,448.451l-2.837.209v-4.948l2.837-.314Z" transform="translate(67.811 -409.486)" fill="#fff"/>
        <path id="Path_205" data-name="Path 205" d="M-114.739,446.917a16.878,16.878,0,0,1-2.278-.376,1.106,1.106,0,0,1-.622-.8c-.067-1.293-.029-2.593-.029-3.973a5.189,5.189,0,0,1,.712-.086c2.218.072,2.218.074,2.218,2.278Z" transform="translate(127.812 -408.231)" fill="#fff"/>
        <path id="Path_206" data-name="Path 206" d="M-117.639,355.406l2.825.405v4.761a6.129,6.129,0,0,1-.769.048c-2.057-.123-2.056-.126-2.056-2.172Z" transform="translate(127.783 -345.304)" fill="#fff"/>
        <path id="Path_207" data-name="Path 207" d="M8.21,405.258l-2.836.409c0-1.559-.039-2.938.034-4.312.014-.26.434-.636.732-.716a14.817,14.817,0,0,1,2.071-.266Z" transform="translate(38.065 -378.103)" fill="#fff"/>
        <path id="Path_208" data-name="Path 208" d="M-5.427,487.627v-4.885l2.87-.423c0,1.523.039,2.905-.034,4.281-.014.267-.428.652-.726.735A15,15,0,0,1-5.427,487.627Z" transform="translate(45.935 -437.874)" fill="#fff"/>
        <path id="Path_209" data-name="Path 209" d="M-106.778,482.412l2.852.38v4.815c-.4,0-.747,0-1.093,0-1.295-.006-1.994-.47-1.786-1.947A24.453,24.453,0,0,0-106.778,482.412Z" transform="translate(119.907 -437.943)" fill="#fff"/>
        <path id="Path_210" data-name="Path 210" d="M-125.542,478.394l2.918.671v4.879a23,23,0,0,1-2.283-.58,1.055,1.055,0,0,1-.607-.729C-125.574,481.3-125.542,479.961-125.542,478.394Z" transform="translate(133.554 -435.012)" fill="#fff"/>
        <path id="Path_211" data-name="Path 211" d="M16.219,478.363c0,1.594.033,2.933-.029,4.268a1.058,1.058,0,0,1-.623.716,23.046,23.046,0,0,1-2.27.564v-4.85Z" transform="translate(32.279 -434.989)" fill="#fff"/>
        <path id="Path_212" data-name="Path 212" d="M24.106,401.914c0-1.554-.039-2.942.033-4.325.015-.274.414-.655.715-.759a17.5,17.5,0,0,1,2.225-.458c0,1.524.024,2.968-.029,4.409-.007.194-.371.462-.619.542C25.756,401.543,25.054,401.681,24.106,401.914Z" transform="translate(24.401 -375.185)" fill="#fff"/>
        <path id="Path_213" data-name="Path 213" d="M-136.587,437.283l2.916.688V442.7a1.6,1.6,0,0,1-.43.055c-2.486-.45-2.486-.451-2.486-2.958Z" transform="translate(141.604 -405.026)" fill="#fff"/>
        <path id="Path_214" data-name="Path 214" d="M-136.612,351.458l2.911.677v4.886a17.772,17.772,0,0,1-2.241-.583,1.2,1.2,0,0,1-.639-.85C-136.653,354.295-136.612,353-136.612,351.458Z" transform="translate(141.631 -342.425)" fill="#fff"/>
        <path id="Path_215" data-name="Path 215" d="M-154.961,345.23c3.061.813,3.5,1.76,2.666,5.549C-154.9,350.427-155.46,349.289-154.961,345.23Z" transform="translate(155.126 -337.882)" fill="#fff"/>
        <path id="Path_216" data-name="Path 216" d="M45.445,389.59c.468,4.222.016,5.168-2.835,5.766,0-1.4-.034-2.764.03-4.123.012-.26.365-.592.641-.733C43.942,390.161,44.652,389.916,45.445,389.59Z" transform="translate(10.904 -370.238)" fill="#fff"/>
        <path id="Path_217" data-name="Path 217" d="M-154.96,431c3.09.762,3.579,1.795,2.788,5.541-1.9-.131-2.783-.994-2.788-2.733C-154.962,432.88-154.96,431.956-154.96,431Z" transform="translate(155.005 -400.44)" fill="#fff"/>
        <path id="Path_218" data-name="Path 218" d="M23.056,344.745c.557,4.028-.039,5.237-2.89,5.68,0-1.354-.035-2.683.03-4.008.013-.263.365-.6.643-.741C21.51,345.333,22.23,345.084,23.056,344.745Z" transform="translate(27.275 -337.528)" fill="#fff"/>
        <path id="Path_219" data-name="Path 219" d="M-141.131,477.847c-2.425-.72-2.725-1.113-2.725-3.479v-2.154C-140.977,472.642-140.211,474.238-141.131,477.847Z" transform="translate(146.906 -430.505)" fill="#fff"/>
        <path id="Path_220" data-name="Path 220" d="M34.072,470.858c.306,4.577.606,5.041-2.769,6,0-1.419-.317-2.9.113-4.11C31.7,471.948,33.058,471.534,34.072,470.858Z" transform="translate(19.227 -429.515)" fill="#fff"/>
        <path id="Path_221" data-name="Path 221" d="M20.112,436.417c0-1.364-.04-2.612.027-3.854a1.3,1.3,0,0,1,.586-.905,21.429,21.429,0,0,1,2.2-.934C23.428,434.809,23.491,435.563,20.112,436.417Z" transform="translate(27.316 -400.241)" fill="#fff"/>
        <path id="Path_222" data-name="Path 222" d="M-129.884,395.466c-2.318-.457-2.908-1.147-2.909-3.307,0-.75,0-1.5,0-2.282C-129.7,390.569-129.293,391.374-129.884,395.466Z" transform="translate(138.836 -370.448)" fill="#fff"/>
      </g>
    </g>
  </g>
</svg>
